<svg width="251" height="32" viewBox="0 0 251 32" fill="none" xmlns="http://www.w3.org/2000/svg">
<path fill-rule="evenodd" clip-rule="evenodd" d="M7.89882 31.9996C6.02552 30.2285 3.23322 29.3962 0.246094 28.7637H50.9427C47.9556 29.3962 45.1633 30.2285 43.29 31.9996H7.89882Z" fill="#19522F"/>
<path fill-rule="evenodd" clip-rule="evenodd" d="M25.5946 3.95506C23.5093 3.95506 21.8197 3.0704 21.8197 1.97943C21.8197 0.88846 23.5093 0 25.5946 0C27.6799 0 29.3702 0.884653 29.3702 1.97943C29.3702 3.07421 27.6799 3.95506 25.5946 3.95506Z" fill="#D9E45A"/>
<path fill-rule="evenodd" clip-rule="evenodd" d="M26.4812 26.2472H34.2403L34.3632 22.678C34.0291 21.6771 32.5771 21.5586 32.5771 20.4776C32.5771 19.4708 32.5771 12.0608 33.4389 12.0608C33.5382 12.0608 33.6957 12.2124 33.6957 12.5083V17.0828C33.6957 17.7414 33.7171 18.244 34.152 18.244C34.5869 18.244 34.5524 17.3469 34.5524 17.0666C34.5524 16.993 34.7496 12.6245 34.7547 12.5561C34.779 12.1962 34.8423 11.9674 35.083 11.9674C35.3236 11.9674 35.4245 12.1962 35.451 12.5561C35.4554 12.6245 35.6165 16.9922 35.6165 17.0666C35.6165 17.3477 35.5812 18.244 36.0169 18.244C36.4526 18.244 36.4747 17.7414 36.4724 17.0828V12.5083C36.4724 12.2139 36.6307 12.0608 36.7293 12.0608C37.5889 12.0608 37.5918 19.4708 37.5918 20.4776C37.5918 21.5586 36.1398 21.6771 35.8049 22.678L35.9286 26.2472H48.4264C48.4264 13.7365 38.2851 3.59551 25.774 3.59551C13.2629 3.59551 3.12305 13.7365 3.12305 26.2472H15.7372L15.8262 23.6796C15.4487 23.3749 13.9584 23.6273 13.9584 23.1342C13.9584 21.2554 14.344 11.4132 17.3437 11.4132V23.971L17.4232 26.2472H24.7945L24.9321 22.2894C24.8533 22.1091 24.6428 21.9214 24.1225 21.524C21.4783 19.5098 22.8022 11.9784 25.6386 11.9784C28.4749 11.9784 29.7989 19.5098 27.1546 21.524C26.6336 21.9207 26.4231 22.1128 26.3451 22.2894L26.4827 26.2472H26.4812Z" fill="#D9E45A"/>
<path d="M76.4464 26.4006C74.0357 27.5953 71.5824 28.1926 69.0864 28.1926C65.7797 28.1926 63.2624 27.2006 61.5344 25.2166C59.8064 23.2326 58.9424 20.3526 58.9424 16.5766C58.9424 14.0166 59.337 11.8086 60.1264 9.95259C60.937 8.07526 62.089 6.64593 63.5824 5.66459C65.0757 4.66193 66.8464 4.16059 68.8944 4.16059C69.897 4.16059 70.8357 4.27793 71.7104 4.51259C72.6064 4.74726 73.3531 5.07793 73.9504 5.50459L75.9024 4.35259V11.3606L74.3024 8.67259C73.6624 7.62726 72.8837 6.82726 71.9664 6.27259C71.0491 5.69659 70.057 5.40859 68.9904 5.40859C66.8997 5.40859 65.2677 6.36859 64.0944 8.2886C62.9424 10.2086 62.3664 12.8646 62.3664 16.2566C62.3664 19.6699 62.9637 22.3046 64.1584 24.1606C65.3744 25.9953 67.081 26.9126 69.2784 26.9126C70.537 26.9126 71.6784 26.5926 72.7024 25.9526C73.7477 25.3126 74.6224 24.3846 75.3264 23.1686L76.4464 21.2166V26.4006Z" fill="#19522F"/>
<path d="M84.6354 28.1926C82.9287 28.1926 81.5634 27.7873 80.5394 26.9766C79.5367 26.1446 79.0354 25.0246 79.0354 23.6166C79.0354 22.5499 79.366 21.6433 80.0274 20.8966C80.71 20.1286 81.6914 19.5419 82.9714 19.1366C84.614 18.5606 86.854 18.2726 89.6914 18.2726V16.7686C89.6914 13.2913 88.3581 11.5526 85.6914 11.5526C84.6247 11.5526 83.8034 11.8193 83.2274 12.3526C82.6727 12.8646 82.3847 13.6219 82.3634 14.6246C82.3207 15.9046 81.8514 16.5446 80.9554 16.5446C80.5287 16.5446 80.1874 16.3846 79.9314 16.0646C79.6754 15.7446 79.5474 15.3073 79.5474 14.7526C79.5474 13.8993 79.8247 13.1313 80.3794 12.4486C80.934 11.7446 81.6914 11.2006 82.6514 10.8166C83.6327 10.4326 84.7421 10.2406 85.9794 10.2406C88.1127 10.2406 89.7661 10.8166 90.9394 11.9686C92.1341 13.1206 92.7314 14.7419 92.7314 16.8326V24.1606C92.7314 25.2699 93.126 25.8246 93.9154 25.8246C94.2141 25.8246 94.438 25.7819 94.5874 25.6966L94.7154 25.8246C94.6301 26.4646 94.3741 26.9553 93.9474 27.2966C93.542 27.6379 93.0194 27.8086 92.3794 27.8086C91.718 27.8086 91.1634 27.6059 90.7154 27.2006C90.2674 26.7953 90.0007 26.2726 89.9154 25.6326C89.4461 26.4433 88.7527 27.0726 87.8354 27.5206C86.9394 27.9686 85.8727 28.1926 84.6354 28.1926ZM85.7874 26.5286C86.6834 26.5286 87.462 26.3153 88.1234 25.8886C88.806 25.4619 89.3287 24.8539 89.6914 24.0646V19.2966C88.646 19.2966 87.6007 19.3819 86.5554 19.5526C85.5314 19.7233 84.71 19.9473 84.0914 20.2246C82.8114 20.8006 82.1714 21.7819 82.1714 23.1686C82.1714 24.1926 82.5021 25.0139 83.1634 25.6326C83.8247 26.2299 84.6994 26.5286 85.7874 26.5286Z" fill="#19522F"/>
<path d="M97.9971 10.8486L99.0531 5.34459H101.005V10.8486H105.069V12.6406H101.005V23.0726C101.005 24.2459 101.208 25.1099 101.613 25.6646C102.04 26.2193 102.68 26.4966 103.533 26.4966C104.386 26.4966 105.09 26.2193 105.645 25.6646L105.901 25.8886C105.56 26.6353 105.069 27.2113 104.429 27.6166C103.789 28.0006 103.01 28.1926 102.093 28.1926C100.77 28.1926 99.7465 27.7873 99.0211 26.9766C98.2958 26.1659 97.9331 25.0353 97.9331 23.5846V12.6406H94.6691V10.8486H97.9971Z" fill="#19522F"/>
<path d="M110.049 19.2646C110.155 21.5473 110.774 23.2966 111.905 24.5126C113.035 25.7073 114.614 26.3046 116.641 26.3046C117.771 26.3046 118.774 26.0913 119.649 25.6646C120.545 25.2166 121.505 24.4806 122.529 23.4566L122.817 23.6806C122.006 25.1739 120.95 26.3046 119.649 27.0726C118.347 27.8193 116.833 28.1926 115.105 28.1926C113.419 28.1926 111.947 27.8406 110.689 27.1366C109.451 26.4113 108.491 25.3979 107.809 24.0966C107.147 22.7739 106.817 21.2379 106.817 19.4886C106.817 17.6753 107.169 16.0753 107.873 14.6886C108.577 13.2806 109.558 12.1926 110.817 11.4246C112.097 10.6353 113.569 10.2406 115.233 10.2406C117.558 10.2406 119.329 11.0193 120.545 12.5766C121.782 14.1126 122.379 16.3419 122.337 19.2646H110.049ZM115.105 11.7446C113.611 11.7446 112.417 12.2886 111.521 13.3766C110.625 14.4433 110.123 15.9579 110.017 17.9206H119.521C119.521 15.8939 119.147 14.3579 118.401 13.3126C117.654 12.2673 116.555 11.7446 115.105 11.7446Z" fill="#19522F"/>
<path d="M126.332 24.8326V13.8886L123.612 10.8486H129.084V16.6726C129.468 14.8593 130.161 13.4299 131.164 12.3846C132.167 11.3179 133.329 10.7846 134.652 10.7846C135.292 10.7846 135.793 10.9339 136.156 11.2326C136.54 11.5099 136.732 11.9153 136.732 12.4486C136.732 12.9393 136.551 13.3339 136.188 13.6326C135.825 13.9313 135.324 14.0806 134.684 14.0806C134.449 14.0806 134.14 14.0379 133.756 13.9526C133.671 13.9313 133.564 13.9099 133.436 13.8886C133.308 13.8673 133.159 13.8566 132.988 13.8566C132.881 13.8566 132.721 13.8779 132.508 13.9206C131.079 14.3899 130.033 15.9473 129.372 18.5926V25.3766L131.484 27.8086H124.956L126.332 24.8326Z" fill="#19522F"/>
<path d="M140.517 19.2646C140.624 21.5473 141.243 23.2966 142.373 24.5126C143.504 25.7073 145.083 26.3046 147.109 26.3046C148.24 26.3046 149.243 26.0913 150.117 25.6646C151.013 25.2166 151.973 24.4806 152.997 23.4566L153.285 23.6806C152.475 25.1739 151.419 26.3046 150.117 27.0726C148.816 27.8193 147.301 28.1926 145.573 28.1926C143.888 28.1926 142.416 27.8406 141.157 27.1366C139.92 26.4113 138.96 25.3979 138.277 24.0966C137.616 22.7739 137.285 21.2379 137.285 19.4886C137.285 17.6753 137.637 16.0753 138.341 14.6886C139.045 13.2806 140.027 12.1926 141.285 11.4246C142.565 10.6353 144.037 10.2406 145.701 10.2406C148.027 10.2406 149.797 11.0193 151.013 12.5766C152.251 14.1126 152.848 16.3419 152.805 19.2646H140.517ZM145.573 11.7446C144.08 11.7446 142.885 12.2886 141.989 13.3766C141.093 14.4433 140.592 15.9579 140.485 17.9206H149.989C149.989 15.8939 149.616 14.3579 148.869 13.3126C148.123 12.2673 147.024 11.7446 145.573 11.7446Z" fill="#19522F"/>
<path d="M161.888 28.1926C160.48 28.1926 159.243 27.8193 158.176 27.0726C157.109 26.3259 156.288 25.2699 155.712 23.9046C155.136 22.5393 154.848 20.9606 154.848 19.1686C154.848 17.3766 155.136 15.8086 155.712 14.4646C156.288 13.1206 157.099 12.0859 158.144 11.3606C159.211 10.6139 160.448 10.2406 161.856 10.2406C163.115 10.2406 164.245 10.5499 165.248 11.1686C166.251 11.7659 167.061 12.6193 167.68 13.7286V6.84859L164.96 3.80859H170.752V25.3766L172.832 27.8086H167.968V24.0966C167.413 25.3766 166.603 26.3793 165.536 27.1046C164.469 27.8299 163.253 28.1926 161.888 28.1926ZM163.008 25.9846C164.075 25.9846 165.024 25.6859 165.856 25.0886C166.688 24.4913 167.296 23.6699 167.68 22.6246V15.8086C167.296 14.7633 166.688 13.9419 165.856 13.3446C165.024 12.7259 164.075 12.4166 163.008 12.4166C161.472 12.4166 160.256 13.0246 159.36 14.2406C158.485 15.4566 158.048 17.1099 158.048 19.2006C158.048 21.2913 158.485 22.9446 159.36 24.1606C160.256 25.3766 161.472 25.9846 163.008 25.9846Z" fill="#19522F"/>
<path d="M182.028 24.7686V7.13659L179.852 4.60859H188.524C191.233 4.60859 193.345 5.20593 194.86 6.40059C196.374 7.57393 197.132 9.22726 197.132 11.3606C197.132 13.7926 196.118 15.6486 194.092 16.9286C192.065 18.2086 189.078 18.8593 185.132 18.8806V25.2806L187.276 27.8086H180.62L182.028 24.7686ZM185.132 6.11259V17.5046C188.161 17.4406 190.38 16.9286 191.788 15.9686C193.217 15.0086 193.932 13.5473 193.932 11.5846C193.932 9.83526 193.42 8.49126 192.396 7.5526C191.393 6.59259 189.964 6.11259 188.108 6.11259H185.132Z" fill="#19522F"/>
<path d="M200.394 24.8326V6.84859L197.674 3.80859H203.434V25.3766L205.546 27.8086H199.018L200.394 24.8326Z" fill="#19522F"/>
<path d="M212.573 28.1926C210.866 28.1926 209.501 27.7873 208.477 26.9766C207.474 26.1446 206.973 25.0246 206.973 23.6166C206.973 22.5499 207.304 21.6433 207.965 20.8966C208.648 20.1286 209.629 19.5419 210.909 19.1366C212.552 18.5606 214.792 18.2726 217.629 18.2726V16.7686C217.629 13.2913 216.296 11.5526 213.629 11.5526C212.562 11.5526 211.741 11.8193 211.165 12.3526C210.61 12.8646 210.322 13.6219 210.301 14.6246C210.258 15.9046 209.789 16.5446 208.893 16.5446C208.466 16.5446 208.125 16.3846 207.869 16.0646C207.613 15.7446 207.485 15.3073 207.485 14.7526C207.485 13.8993 207.762 13.1313 208.317 12.4486C208.872 11.7446 209.629 11.2006 210.589 10.8166C211.57 10.4326 212.68 10.2406 213.917 10.2406C216.05 10.2406 217.704 10.8166 218.877 11.9686C220.072 13.1206 220.669 14.7419 220.669 16.8326V24.1606C220.669 25.2699 221.064 25.8246 221.853 25.8246C222.152 25.8246 222.376 25.7819 222.525 25.6966L222.653 25.8246C222.568 26.4646 222.312 26.9553 221.885 27.2966C221.48 27.6379 220.957 27.8086 220.317 27.8086C219.656 27.8086 219.101 27.6059 218.653 27.2006C218.205 26.7953 217.938 26.2726 217.853 25.6326C217.384 26.4433 216.69 27.0726 215.773 27.5206C214.877 27.9686 213.81 28.1926 212.573 28.1926ZM213.725 26.5286C214.621 26.5286 215.4 26.3153 216.061 25.8886C216.744 25.4619 217.266 24.8539 217.629 24.0646V19.2966C216.584 19.2966 215.538 19.3819 214.493 19.5526C213.469 19.7233 212.648 19.9473 212.029 20.2246C210.749 20.8006 210.109 21.7819 210.109 23.1686C210.109 24.1926 210.44 25.0139 211.101 25.6326C211.762 26.2299 212.637 26.5286 213.725 26.5286Z" fill="#19522F"/>
<path d="M225.935 10.8486L226.991 5.34459H228.943V10.8486H233.007V12.6406H228.943V23.0726C228.943 24.2459 229.145 25.1099 229.551 25.6646C229.977 26.2193 230.617 26.4966 231.471 26.4966C232.324 26.4966 233.028 26.2193 233.583 25.6646L233.839 25.8886C233.497 26.6353 233.007 27.2113 232.367 27.6166C231.727 28.0006 230.948 28.1926 230.031 28.1926C228.708 28.1926 227.684 27.7873 226.959 26.9766C226.233 26.1659 225.871 25.0353 225.871 23.5846V12.6406H222.607V10.8486H225.935Z" fill="#19522F"/>
<path d="M237.986 19.2646C238.093 21.5473 238.711 23.2966 239.842 24.5126C240.973 25.7073 242.551 26.3046 244.578 26.3046C245.709 26.3046 246.711 26.0913 247.586 25.6646C248.482 25.2166 249.442 24.4806 250.466 23.4566L250.754 23.6806C249.943 25.1739 248.887 26.3046 247.586 27.0726C246.285 27.8193 244.77 28.1926 243.042 28.1926C241.357 28.1926 239.885 27.8406 238.626 27.1366C237.389 26.4113 236.429 25.3979 235.746 24.0966C235.085 22.7739 234.754 21.2379 234.754 19.4886C234.754 17.6753 235.106 16.0753 235.81 14.6886C236.514 13.2806 237.495 12.1926 238.754 11.4246C240.034 10.6353 241.506 10.2406 243.17 10.2406C245.495 10.2406 247.266 11.0193 248.482 12.5766C249.719 14.1126 250.317 16.3419 250.274 19.2646H237.986ZM243.042 11.7446C241.549 11.7446 240.354 12.2886 239.458 13.3766C238.562 14.4433 238.061 15.9579 237.954 17.9206H247.458C247.458 15.8939 247.085 14.3579 246.338 13.3126C245.591 12.2673 244.493 11.7446 243.042 11.7446Z" fill="#19522F"/>
</svg>
